# xmcd
#
# Track frame offsets:
#	150
#	18710
#	37545
#	53357
#	66487
#	81645
#	96995
#	111597
#	133300
#	147817
#	167525
#	183690
#	197555
#	214365
#	231407
#	248845
#	264062
#	281120
#	295552
#
# Disc length: 4094 seconds
#
# Revision: 0
# Processed by: cddbd v1.5.2PL0 Copyright (c) Steve Scherf et al.
# Submitted via: dBpowerAMP V4.0
#
DISCID=220ffc13
DTITLE=Varios - Nosso cantar Pai d'egua
DYEAR=1900
DGENRE=Country
TTITLE0=Bom dia Belem
TTITLE1=Belem Para Brasil
TTITLE2=A forca que vem das ruas
TTITLE3=Pai d'egua
TTITLE4=navio Gaiola
TTITLE5=Ao por do sol
TTITLE6=Pout pourri de carimbo
TTITLE7=Tamba Taja
TTITLE8=constelacao sentimental
TTITLE9=Pauapixuna
TTITLE10=Fogueira
TTITLE11=Brinco de princesa
TTITLE12=Pecadores de Adao
TTITLE13=Pout pourri de calipso do Para
TTITLE14=Chamegoso
TTITLE15=Apara com esse namoro
TTITLE16=Pout pourri de bolero
TTITLE17=Xote Bragantino
TTITLE18=Paisagem com hai-kai
EXTD=
EXTT0=
EXTT1=
EXTT2=
EXTT3=
EXTT4=
EXTT5=
EXTT6=
EXTT7=
EXTT8=
EXTT9=
EXTT10=
EXTT11=
EXTT12=
EXTT13=
EXTT14=
EXTT15=
EXTT16=
EXTT17=
EXTT18=
PLAYORDER=
